HIERARCHY
ROOT Hips
{
    OFFSET 0.000 0 0.000
    CHANNELS 6 Xposition Yposition Zposition Zrotation Xrotation Yrotation
    JOINT RightUpLeg
    {
        OFFSET -10.280 -1.737 0.000
        CHANNELS 3 Zrotation Xrotation Yrotation
        JOINT RightLeg
        {
            OFFSET 0.000 -45.650 0.000
            CHANNELS 3 Zrotation Xrotation Yrotation
            JOINT RightFoot
            {
                OFFSET 0.000 -45.650 0.000
                CHANNELS 3 Zrotation Xrotation Yrotation
                End Site
                {
                    OFFSET 0.000 -8.080 18.389
                }
            }
        }
    }
    JOINT LeftUpLeg
    {
        OFFSET 10.280 -1.737 0.000
        CHANNELS 3 Zrotation Xrotation Yrotation
        JOINT LeftLeg
        {
            OFFSET 0.000 -45.650 0.000
            CHANNELS 3 Zrotation Xrotation Yrotation
            JOINT LeftFoot
            {
                OFFSET 0.000 -45.650 0.000
                CHANNELS 3 Zrotation Xrotation Yrotation
                End Site
                {
                    OFFSET 0.000 -8.080 18.389
                }
            }
        }
    }
    JOINT Spine
    {
        OFFSET 0.000 15.634 0.000
        CHANNELS 3 Zrotation Xrotation Yrotation
        JOINT Spine1
        {
            OFFSET 0.000 10.620 0.000
            CHANNELS 3 Zrotation Xrotation Yrotation
            JOINT Spine2
            {
                OFFSET 0.000 11.058 0.000
                CHANNELS 3 Zrotation Xrotation Yrotation
                JOINT Spine3
                {
                    OFFSET 0.000 10.620 0.000
                    CHANNELS 3 Zrotation Xrotation Yrotation
                    JOINT Neck
                    {
                        OFFSET 0.000 11.351 0.000
                        CHANNELS 3 Zrotation Xrotation Yrotation
                        JOINT Head
                        {
                            OFFSET 0.000 10.250 0.000
                            CHANNELS 3 Zrotation Xrotation Yrotation
                            End Site
                            {
                                OFFSET 0.000 17.430 0.000
                            }
                        }
                    }
                    JOINT RightShoulder
                    {
                        OFFSET -3.443 7.567 0.000
                        CHANNELS 3 Zrotation Xrotation Yrotation
                        JOINT RightArm
                        {
                            OFFSET -13.772 0.000 0.000
                            CHANNELS 3 Zrotation Xrotation Yrotation
                            JOINT RightForeArm
                            {
                                OFFSET -28.780 0.000 0.000
                                CHANNELS 3 Zrotation Xrotation Yrotation
                                JOINT RightHand
                                {
                                    OFFSET -28.260 0.000 0.000
                                    CHANNELS 3 Zrotation Xrotation Yrotation
                                    JOINT RightHandThumb1
                                    {
                                        OFFSET -2.702 0.206 3.388
                                        CHANNELS 3 Zrotation Xrotation Yrotation
                                        JOINT RightHandThumb2
                                        {
                                            OFFSET -3.998 0.000 0.000
                                            CHANNELS 3 Zrotation Xrotation Yrotation
                                            JOINT RightHandThumb3
                                            {
                                                OFFSET -2.778 0.000 0.000
                                                CHANNELS 3 Zrotation Xrotation Yrotation
                                                End Site
                                                {
                                                    OFFSET -2.382 0.000 0.000
                                                }
                                            }
                                        }
                                    }
                                    JOINT RightInHandIndex
                                    {
                                        OFFSET -3.500 0.552 2.148
                                        CHANNELS 3 Zrotation Xrotation Yrotation
                                        JOINT RightHandIndex1
                                        {
                                            OFFSET -5.664 -0.099 1.085
                                            CHANNELS 3 Zrotation Xrotation Yrotation
                                            JOINT RightHandIndex2
                                            {
                                                OFFSET -3.930 0.000 0.000
                                                CHANNELS 3 Zrotation Xrotation Yrotation
                                                JOINT RightHandIndex3
                                                {
                                                    OFFSET -2.228 0.000 0.000
                                                    CHANNELS 3 Zrotation Xrotation Yrotation
                                                    End Site
                                                    {
                                                        OFFSET -1.960 0.000 0.000
                                                    }
                                                }
                                            }
                                        }
                                    }
                                    JOINT RightInHandMiddle
                                    {
                                        OFFSET -3.672 0.562 0.822
                                        CHANNELS 3 Zrotation Xrotation Yrotation
                                        JOINT RightHandMiddle1
                                        {
                                            OFFSET -5.618 -0.091 0.341
                                            CHANNELS 3 Zrotation Xrotation Yrotation
                                            JOINT RightHandMiddle2
                                            {
                                                OFFSET -4.288 0.000 0.000
                                                CHANNELS 3 Zrotation Xrotation Yrotation
                                                JOINT RightHandMiddle3
                                                {
                                                    OFFSET -2.688 0.000 0.000
                                                    CHANNELS 3 Zrotation Xrotation Yrotation
                                                    End Site
                                                    {
                                                        OFFSET -2.144 0.000 0.000
                                                    }
                                                }
                                            }
                                        }
                                    }
                                    JOINT RightInHandRing
                                    {
                                        OFFSET -3.654 0.584 -0.140
                                        CHANNELS 3 Zrotation Xrotation Yrotation
                                        JOINT RightHandRing1
                                        {
                                            OFFSET -5.032 -0.024 -0.520
                                            CHANNELS 3 Zrotation Xrotation Yrotation
                                            JOINT RightHandRing2
                                            {
                                                OFFSET -3.737 0.000 0.000
                                                CHANNELS 3 Zrotation Xrotation Yrotation
                                                JOINT RightHandRing3
                                                {
                                                    OFFSET -2.593 0.000 0.000
                                                    CHANNELS 3 Zrotation Xrotation Yrotation
                                                    End Site
                                                    {
                                                        OFFSET -2.016 0.000 0.000
                                                    }
                                                }
                                            }
                                        }
                                    }
                                    JOINT RightInHandPinky
                                    {
                                        OFFSET -3.432 0.510 -1.305
                                        CHANNELS 3 Zrotation Xrotation Yrotation
                                        JOINT RightHandPinky1
                                        {
                                            OFFSET -4.496 -0.024 -1.184
                                            CHANNELS 3 Zrotation Xrotation Yrotation
                                            JOINT RightHandPinky2
                                            {
                                                OFFSET -2.993 0.000 0.000
                                                CHANNELS 3 Zrotation Xrotation Yrotation
                                                JOINT RightHandPinky3
                                                {
                                                    OFFSET -1.891 0.000 0.000
                                                    CHANNELS 3 Zrotation Xrotation Yrotation
                                                    End Site
                                                    {
                                                        OFFSET -1.786 0.000 0.000
                                                    }
                                                }
                                            }
                                        }
                                    }
                                }
                            }
                        }
                    }
                    JOINT LeftShoulder
                    {
                        OFFSET 3.443 7.567 0.000
                        CHANNELS 3 Zrotation Xrotation Yrotation
                        JOINT LeftArm
                        {
                            OFFSET 13.772 0.000 0.000
                            CHANNELS 3 Zrotation Xrotation Yrotation
                            JOINT LeftForeArm
                            {
                                OFFSET 28.780 0.000 0.000
                                CHANNELS 3 Zrotation Xrotation Yrotation
                                JOINT LeftHand
                                {
                                    OFFSET 28.260 0.000 0.000
                                    CHANNELS 3 Zrotation Xrotation Yrotation
                                    JOINT LeftHandThumb1
                                    {
                                        OFFSET 2.702 0.206 3.388
                                        CHANNELS 3 Zrotation Xrotation Yrotation
                                        JOINT LeftHandThumb2
                                        {
                                            OFFSET 3.998 0.000 0.000
                                            CHANNELS 3 Zrotation Xrotation Yrotation
                                            JOINT LeftHandThumb3
                                            {
                                                OFFSET 2.778 0.000 0.000
                                                CHANNELS 3 Zrotation Xrotation Yrotation
                                                End Site
                                                {
                                                    OFFSET 2.382 0.000 0.000
                                                }
                                            }
                                        }
                                    }
                                    JOINT LeftInHandIndex
                                    {
                                        OFFSET 3.500 0.552 2.148
                                        CHANNELS 3 Zrotation Xrotation Yrotation
                                        JOINT LeftHandIndex1
                                        {
                                            OFFSET 5.664 -0.099 1.085
                                            CHANNELS 3 Zrotation Xrotation Yrotation
                                            JOINT LeftHandIndex2
                                            {
                                                OFFSET 3.930 0.000 0.000
                                                CHANNELS 3 Zrotation Xrotation Yrotation
                                                JOINT LeftHandIndex3
                                                {
                                                    OFFSET 2.228 0.000 0.000
                                                    CHANNELS 3 Zrotation Xrotation Yrotation
                                                    End Site
                                                    {
                                                        OFFSET 1.960 0.000 0.000
                                                    }
                                                }
                                            }
                                        }
                                    }
                                    JOINT LeftInHandMiddle
                                    {
                                        OFFSET 3.672 0.562 0.822
                                        CHANNELS 3 Zrotation Xrotation Yrotation
                                        JOINT LeftHandMiddle1
                                        {
                                            OFFSET 5.618 -0.091 0.341
                                            CHANNELS 3 Zrotation Xrotation Yrotation
                                            JOINT LeftHandMiddle2
                                            {
                                                OFFSET 4.288 0.000 0.000
                                                CHANNELS 3 Zrotation Xrotation Yrotation
                                                JOINT LeftHandMiddle3
                                                {
                                                    OFFSET 2.688 0.000 0.000
                                                    CHANNELS 3 Zrotation Xrotation Yrotation
                                                    End Site
                                                    {
                                                        OFFSET 2.144 0.000 0.000
                                                    }
                                                }
                                            }
                                        }
                                    }
                                    JOINT LeftInHandRing
                                    {
                                        OFFSET 3.654 0.584 -0.140
                                        CHANNELS 3 Zrotation Xrotation Yrotation
                                        JOINT LeftHandRing1
                                        {
                                            OFFSET 5.032 -0.024 -0.520
                                            CHANNELS 3 Zrotation Xrotation Yrotation
                                            JOINT LeftHandRing2
                                            {
                                                OFFSET 3.737 0.000 0.000
                                                CHANNELS 3 Zrotation Xrotation Yrotation
                                                JOINT LeftHandRing3
                                                {
                                                    OFFSET 2.593 0.000 0.000
                                                    CHANNELS 3 Zrotation Xrotation Yrotation
                                                    End Site
                                                    {
                                                        OFFSET 2.016 0.000 0.000
                                                    }
                                                }
                                            }
                                        }
                                    }
                                    JOINT LeftInHandPinky
                                    {
                                        OFFSET 3.432 0.510 -1.305
                                        CHANNELS 3 Zrotation Xrotation Yrotation
                                        JOINT LeftHandPinky1
                                        {
                                            OFFSET 4.496 -0.024 -1.184
                                            CHANNELS 3 Zrotation Xrotation Yrotation
                                            JOINT LeftHandPinky2
                                            {
                                                OFFSET 2.993 0.000 0.000
                                                CHANNELS 3 Zrotation Xrotation Yrotation
                                                JOINT LeftHandPinky3
                                                {
                                                    OFFSET 1.891 0.000 0.000
                                                    CHANNELS 3 Zrotation Xrotation Yrotation
                                                    End Site
                                                    {
                                                        OFFSET 1.786 0.000 0.000
                                                    }
                                                }
                                            }
                                        }
                                    }
                                }
                            }
                        }
                    }
                }
            }
        }
    }
}
MOTION
Frames: 4
Frame Time: 0.0333
1.294253 100.862679 0.140426 0.983293 5.293337 -0.017865 1.089108 -16.332628 13.419806 -0.000000 25.099262 0.000001 0.320074 -13.938952 -10.084707 -0.100521 -14.553122 11.281086 -0.000000 22.952732 -0.000000 2.132820 -13.579789 11.359454 -1.018719 -1.277387 9.983788 -0.275585 -0.274141 2.508442 -0.451242 -0.436826 4.141605 0.045284 -0.077523 -0.771664 0.045362 -0.076847 -0.774055 0.671259 -1.349174 -14.048820 -1.553551 -1.763164 -7.945502 81.348892 7.630288 4.447067 7.370781 13.838864 2.686066 -2.025036 -10.291486 1.334305 28.184042 10.729352 19.159164 -0.000000 0.000000 -10.000000 -0.000000 0.000000 -10.000000 -0.000000 0.000000 -0.000000 19.981762 0.871897 2.396401 24.000000 0.000000 -0.000000 20.000000 0.000000 -0.000000 -0.000000 0.000000 -0.000000 20.000000 0.000000 -0.000000 24.000000 0.000000 -0.000000 20.000000 0.000000 -0.000000 -0.000000 0.000000 -0.000000 19.974758 -1.025646 -2.819379 24.000000 0.000000 -0.000000 20.000000 0.000000 -0.000000 -0.000000 0.000000 -0.000000 19.781452 -3.009481 -8.305146 24.000000 0.000000 -0.000000 20.000000 0.000000 -0.000000 -3.362609 -0.622328 -23.697577 -75.884361 -18.124092 -0.170608 -7.241104 12.385756 -5.131818 1.169072 -19.278393 2.308897 -28.184042 10.729352 -19.159164 -0.000000 0.000000 10.000000 -0.000000 0.000000 10.000000 -0.000000 0.000000 -0.000000 -19.981762 0.871897 -2.396401 -24.000000 0.000000 -0.000000 -20.000000 0.000000 -0.000000 -0.000000 0.000000 -0.000000 -20.000000 0.000000 -0.000000 -24.000000 0.000000 -0.000000 -20.000000 0.000000 -0.000000 -0.000000 0.000000 -0.000000 -19.974758 -1.025646 2.819379 -24.000000 0.000000 -0.000000 -20.000000 0.000000 -0.000000 -0.000000 0.000000 -0.000000 -19.781452 -3.009481 8.305146 -24.000000 0.000000 -0.000000 -20.000000 0.000000 -0.000000 
1.312612 100.861610 0.139064 0.991123 5.288649 -0.018178 1.077994 -16.333893 13.425721 0.000000 25.118532 0.000000 0.303751 -13.944468 -10.102276 -0.110889 -14.543215 11.280205 -0.000000 22.947559 -0.000000 2.133917 -13.579205 11.367255 -1.020190 -1.272117 9.987335 -0.275874 -0.272745 2.509325 -0.451755 -0.434471 4.143029 0.047095 -0.077695 -0.765908 0.047175 -0.076998 -0.768251 0.705098 -1.351709 -13.941653 -1.592859 -1.785999 -7.935752 81.374016 7.632648 4.437453 7.373747 13.793033 2.645474 -2.012004 -10.201479 1.319953 28.184042 10.729352 19.159164 -0.000000 0.000000 -10.000000 -0.000000 0.000000 -10.000000 -0.000000 0.000000 -0.000000 19.981762 0.871897 2.396401 24.000000 0.000000 -0.000000 20.000000 0.000000 -0.000000 -0.000000 0.000000 -0.000000 20.000000 0.000000 -0.000000 24.000000 0.000000 -0.000000 20.000000 0.000000 -0.000000 -0.000000 0.000000 -0.000000 19.974758 -1.025646 -2.819379 24.000000 0.000000 -0.000000 20.000000 0.000000 -0.000000 -0.000000 0.000000 -0.000000 19.781452 -3.009481 -8.305146 24.000000 0.000000 -0.000000 20.000000 0.000000 -0.000000 -3.346073 -0.648802 -23.718616 -75.910347 -18.140129 -0.177838 -7.240967 12.379771 -5.143063 1.155249 -19.285431 2.324320 -28.184042 10.729352 -19.159164 -0.000000 0.000000 10.000000 -0.000000 0.000000 10.000000 -0.000000 0.000000 -0.000000 -19.981762 0.871897 -2.396401 -24.000000 0.000000 -0.000000 -20.000000 0.000000 -0.000000 -0.000000 0.000000 -0.000000 -20.000000 0.000000 -0.000000 -24.000000 0.000000 -0.000000 -20.000000 0.000000 -0.000000 -0.000000 0.000000 -0.000000 -19.974758 -1.025646 2.819379 -24.000000 0.000000 -0.000000 -20.000000 0.000000 -0.000000 -0.000000 0.000000 -0.000000 -19.781452 -3.009481 8.305146 -24.000000 0.000000 -0.000000 -20.000000 0.000000 -0.000000 
1.327207 100.860435 0.126406 0.978326 5.301637 0.006343 1.073347 -16.342524 13.394966 -0.000000 25.108932 -0.000000 0.332048 -13.952128 -10.100841 -0.097515 -14.572679 11.277092 0.000000 22.966927 -0.000000 2.133677 -13.577691 11.351145 -1.009195 -1.271138 9.969675 -0.273071 -0.273071 2.504803 -0.447106 -0.435261 4.135700 0.046211 -0.078322 -0.766830 0.046290 -0.077637 -0.769170 0.687455 -1.363148 -13.958716 -1.611055 -1.799531 -7.906854 81.385902 7.614912 4.449394 7.369293 13.778268 2.594222 -2.015615 -10.160847 1.331156 28.184042 10.729352 19.159164 -0.000000 0.000000 -10.000000 -0.000000 0.000000 -10.000000 -0.000000 0.000000 -0.000000 19.981762 0.871897 2.396401 24.000000 0.000000 -0.000000 20.000000 0.000000 -0.000000 -0.000000 0.000000 -0.000000 20.000000 0.000000 -0.000000 24.000000 0.000000 -0.000000 20.000000 0.000000 -0.000000 -0.000000 0.000000 -0.000000 19.974758 -1.025646 -2.819379 24.000000 0.000000 -0.000000 20.000000 0.000000 -0.000000 -0.000000 0.000000 -0.000000 19.781452 -3.009481 -8.305146 24.000000 0.000000 -0.000000 20.000000 0.000000 -0.000000 -3.337920 -0.682187 -23.718317 -75.925270 -18.107834 -0.215767 -7.232070 12.367473 -5.112641 1.165952 -19.364574 2.324301 -28.184042 10.729352 -19.159164 -0.000000 0.000000 10.000000 -0.000000 0.000000 10.000000 -0.000000 0.000000 -0.000000 -19.981762 0.871897 -2.396401 -24.000000 0.000000 -0.000000 -20.000000 0.000000 -0.000000 -0.000000 0.000000 -0.000000 -20.000000 0.000000 -0.000000 -24.000000 0.000000 -0.000000 -20.000000 0.000000 -0.000000 -0.000000 0.000000 -0.000000 -19.974758 -1.025646 2.819379 -24.000000 0.000000 -0.000000 -20.000000 0.000000 -0.000000 -0.000000 0.000000 -0.000000 -19.781452 -3.009481 8.305146 -24.000000 0.000000 -0.000000 -20.000000 0.000000 -0.000000 
1.337209 100.859100 0.112189 0.958836 5.343091 0.031016 1.082883 -16.383663 13.364114 0.000000 25.102974 -0.000001 0.319284 -13.944057 -10.076923 -0.079629 -14.637688 11.235569 0.000000 22.996349 -0.000000 2.115042 -13.582547 11.395941 -1.006210 -1.278136 9.938026 -0.272372 -0.275099 2.496823 -0.445922 -0.438759 4.122771 0.044482 -0.080229 -0.764646 0.044557 -0.079567 -0.766970 0.652228 -1.397767 -13.918119 -1.623105 -1.806185 -7.836416 81.400078 7.580355 4.468143 7.347800 13.805035 2.572101 -2.005843 -10.184964 1.357035 28.184042 10.729352 19.159164 -0.000000 0.000000 -10.000000 -0.000000 0.000000 -10.000000 -0.000000 0.000000 -0.000000 19.981762 0.871897 2.396401 24.000000 0.000000 -0.000000 20.000000 0.000000 -0.000000 -0.000000 0.000000 -0.000000 20.000000 0.000000 -0.000000 24.000000 0.000000 -0.000000 20.000000 0.000000 -0.000000 -0.000000 0.000000 -0.000000 19.974758 -1.025646 -2.819379 24.000000 0.000000 -0.000000 20.000000 0.000000 -0.000000 -0.000000 0.000000 -0.000000 19.781452 -3.009481 -8.305146 24.000000 0.000000 -0.000000 20.000000 0.000000 -0.000000 -3.306957 -0.718129 -23.690062 -75.967384 -18.003448 -0.261859 -7.198135 12.312232 -5.117049 1.187338 -19.389240 2.314935 -28.184042 10.729352 -19.159164 -0.000000 0.000000 10.000000 -0.000000 0.000000 10.000000 -0.000000 0.000000 -0.000000 -19.981762 0.871897 -2.396401 -24.000000 0.000000 -0.000000 -20.000000 0.000000 -0.000000 -0.000000 0.000000 -0.000000 -20.000000 0.000000 -0.000000 -24.000000 0.000000 -0.000000 -20.000000 0.000000 -0.000000 -0.000000 0.000000 -0.000000 -19.974758 -1.025646 2.819379 -24.000000 0.000000 -0.000000 -20.000000 0.000000 -0.000000 -0.000000 0.000000 -0.000000 -19.781452 -3.009481 8.305146 -24.000000 0.000000 -0.000000 -20.000000 0.000000 -0.000000 
